<?xml version="1.0" standalone="no"?>
<!DOCTYPE svg PUBLIC "-//W3C//DTD SVG 20010904//EN"
 "http://www.w3.org/TR/2001/REC-SVG-20010904/DTD/svg10.dtd">
<svg version="1.0" xmlns="http://www.w3.org/2000/svg"
 width="33.000000pt" height="47.000000pt" viewBox="0 0 33.000000 47.000000"
 preserveAspectRatio="xMidYMid meet">

<g transform="translate(0.000000,47.000000) scale(0.100000,-0.100000)"
fill="#000000" stroke="none">
<path d="M94 436 c-46 -46 -46 -86 0 -132 47 -47 95 -47 142 0 46 46 46 86 0
132 -47 47 -95 47 -142 0z"/>
<path d="M99 237 c-61 -41 -99 -118 -99 -199 l0 -38 165 0 165 0 0 38 c0 113
-81 222 -165 222 -18 0 -47 -10 -66 -23z m91 -72 c10 -12 10 -19 2 -27 -8 -8
-7 -16 1 -28 8 -14 8 -22 -2 -34 -15 -17 -56 -22 -66 -7 -3 6 7 9 22 8 36 -3
46 31 12 40 l-23 6 23 9 c30 11 21 34 -13 31 -14 -1 -24 2 -21 8 10 14 51 11
65 -6z"/>
</g>
</svg>
